 <svg  version="1.0" xmlns="http://www.w3.org/2000/svg"  width="300.000000pt" height="300.000000pt" viewBox="0 0 300.000000 300.000000"  preserveAspectRatio="xMidYMid meet">  <g transform="translate(0.000000,300.000000) scale(0.100000,-0.100000)" fill="#ffffff" stroke="none"> <path d="M1052 2894 l-22 -15 0 -410 0 -410 48 3 47 3 3 373 2 372 840 0 840 0 0 -750 0 -750 -840 0 -839 0 -3 118 -3 117 -47 3 -48 3 0 -150 c0 -123 3 -152 16 -165 14 -14 111 -16 924 -16 l909 0 15 22 c14 20 16 115 16 825 0 790 0 803 -20 823 -20 20 -33 20 -918 20 -796 0 -900 -2 -920 -16z"/> <path d="M1924 2757 c-3 -8 -4 -41 -2 -73 l3 -59 45 0 45 0 0 70 0 70 -43 3 c-29 2 -44 -1 -48 -11z"/> <path d="M1638 2677 l-36 -23 31 -57 c18 -31 36 -57 42 -57 5 0 25 9 43 20 l34 21 -28 47 c-41 73 -44 74 -86 49z"/> <path d="M2221 2639 c-18 -33 -31 -62 -30 -63 15 -13 71 -36 78 -31 12 7 61 91 61 103 0 8 -63 52 -73 52 -1 0 -17 -27 -36 -61z"/> <path d="M1870 2566 c-240 -51 -404 -293 -363 -533 22 -127 101 -248 205 -314 29 -18 56 -38 60 -44 4 -5 8 -44 8 -85 0 -85 20 -139 66 -182 55 -51 128 -62 199 -29 82 37 115 103 115 226 l0 71 66 43 c250 165 282 517 66 723 -119 114 -268 158 -422 124z m252 -118 c129 -60 210 -180 217 -319 6 -137 -46 -246 -151 -320 -96 -67 -108 -80 -119 -125 l-12 -45 -90 3 -91 3 -6 30 c-11 52 -28 72 -99 119 -74 49 -129 118 -157 196 -21 61 -21 172 0 238 35 103 128 198 230 234 77 27 203 21 278 -14z m-62 -914 c0 -45 -62 -91 -109 -79 -36 9 -71 44 -71 72 0 22 2 23 90 23 75 0 90 -3 90 -16z"/> <path d="M1970 2345 l0 -45 47 -11 c62 -16 116 -70 132 -132 l11 -47 46 0 47 0 -7 41 c-16 103 -95 196 -189 224 -81 24 -87 22 -87 -30z"/> <path d="M513 2516 c-213 -69 -296 -312 -172 -499 17 -26 30 -49 28 -51 -2 -1 -23 -8 -46 -14 -94 -27 -186 -120 -215 -215 -9 -30 -13 -132 -13 -357 0 -304 1 -316 22 -355 11 -22 34 -52 50 -67 33 -31 108 -67 141 -68 l22 0 0 -350 0 -350 45 0 45 0 0 445 0 445 -45 0 -45 0 0 -45 c0 -42 -2 -45 -26 -45 -14 0 -39 9 -55 21 -58 41 -59 50 -59 379 0 332 2 345 63 408 72 75 44 72 640 72 401 0 536 -3 545 -12 16 -16 15 -63 -1 -76 -6 -6 -143 -29 -302 -51 -160 -23 -300 -46 -312 -51 l-23 -10 0 -740 0 -740 45 0 45 0 0 705 c0 388 3 705 8 705 4 0 127 18 274 39 186 27 277 45 299 58 51 29 73 66 73 123 0 54 -18 87 -68 124 -26 20 -42 21 -332 24 l-304 3 29 37 c63 78 82 172 57 270 -27 105 -91 183 -185 225 -58 25 -171 32 -228 13z m163 -91 c102 -30 164 -115 164 -222 -1 -160 -146 -266 -304 -222 -51 14 -121 80 -142 134 -39 103 -2 223 86 281 66 44 120 52 196 29z"/> <path d="M1401 2439 c-13 -22 -21 -41 -20 -43 36 -26 112 -65 120 -61 5 4 16 20 25 37 18 36 15 40 -57 81 l-46 26 -22 -40z"/> <path d="M2443 2439 l-52 -30 21 -37 c12 -20 23 -39 24 -41 3 -3 110 54 122 64 7 6 -41 75 -51 74 -7 0 -35 -14 -64 -30z"/> <path d="M1317 2153 c-4 -3 -7 -26 -7 -50 l0 -43 70 0 70 0 0 50 0 50 -63 0 c-35 0 -67 -3 -70 -7z"/> <path d="M2484 2146 c-3 -8 -4 -29 -2 -48 l3 -33 70 0 70 0 0 45 0 45 -68 3 c-52 2 -69 0 -73 -12z"/> <path d="M1409 1119 c-130 -19 -239 -145 -239 -274 0 -44 26 -128 50 -158 25 -32 25 -37 0 -37 -52 0 -130 -61 -166 -130 -23 -43 -33 -274 -15 -309 16 -28 96 -68 189 -93 99 -26 322 -29 428 -5 91 20 166 52 196 84 22 23 23 32 23 152 -1 111 -4 132 -24 174 -27 56 -81 103 -136 119 -22 6 -41 12 -42 13 -1 0 11 27 27 59 53 103 39 227 -35 314 -58 69 -159 105 -256 91z m129 -110 c103 -50 133 -191 60 -284 -45 -58 -148 -82 -221 -51 -44 18 -95 78 -103 121 -31 165 117 284 264 214z m177 -469 c51 -31 65 -73 65 -188 l0 -101 -53 -19 c-154 -58 -425 -56 -559 4 l-38 17 0 104 c0 118 12 152 63 183 29 18 52 20 261 20 212 0 231 -1 261 -20z"/> <path d="M2439 1119 c-199 -30 -301 -266 -186 -432 22 -33 24 -30 -31 -46 -52 -15 -106 -61 -134 -115 -18 -34 -23 -63 -26 -167 -3 -77 0 -134 6 -146 16 -28 100 -71 189 -94 102 -27 322 -30 433 -6 101 22 198 71 212 105 5 16 8 76 6 142 -3 94 -8 124 -27 163 -28 58 -82 104 -139 120 -23 6 -41 14 -39 17 2 3 16 31 31 64 99 204 -68 429 -295 395z m149 -122 c75 -49 103 -157 62 -237 -32 -62 -81 -94 -154 -98 -73 -4 -115 15 -160 71 -55 69 -45 190 21 249 59 54 162 61 231 15z m153 -452 c55 -29 69 -67 69 -187 l0 -107 -53 -19 c-79 -30 -158 -42 -272 -42 -114 0 -193 12 -272 42 l-53 19 0 105 c0 119 12 153 63 184 29 18 52 20 260 20 186 0 233 -3 258 -15z"/> <path d="M560 496 l0 -306 50 0 50 0 -2 303 -3 302 -47 3 -48 3 0 -305z"/> </g> </svg> 